<svg width="48" height="23" viewBox="0 0 48 23" fill="none" xmlns="http://www.w3.org/2000/svg">
<path d="M37.7007 21.8312L47.1415 12.3681C47.7961 11.7118 47.7961 10.6321 47.1415 9.97591L37.7007 0.492156C37.0456 -0.164052 35.9686 -0.164052 35.314 0.492156C34.6589 1.14836 34.6589 2.22809 35.314 2.8843L41.8826 9.46813H1.68918C0.760049 9.46813 0 10.2298 0 11.1617C0 12.093 0.760049 12.8552 1.68918 12.8552H41.8614L35.2928 19.439C34.9546 19.7777 34.8068 20.2007 34.8068 20.6454C34.8068 21.0901 34.9758 21.5131 35.2928 21.8524C35.9686 22.4874 37.0456 22.4874 37.7007 21.8312Z" fill="white"/>
</svg>
