<svg id="visual" viewBox="0 0 1817 91" width="1817" height="91" xmlns="http://www.w3.org/2000/svg" xmlns:xlink="http://www.w3.org/1999/xlink" version="1.1"><path d="M0 28L43.3 29.2C86.7 30.3 173.3 32.7 259.8 33C346.3 33.3 432.7 31.7 519.2 30.3C605.7 29 692.3 28 778.8 28C865.3 28 951.7 29 1038.2 30C1124.7 31 1211.3 32 1297.8 32.2C1384.3 32.3 1470.7 31.7 1557.2 30.5C1643.7 29.3 1730.3 27.7 1773.7 26.8L1817 26L1817 0L1773.7 0C1730.3 0 1643.7 0 1557.2 0C1470.7 0 1384.3 0 1297.8 0C1211.3 0 1124.7 0 1038.2 0C951.7 0 865.3 0 778.8 0C692.3 0 605.7 0 519.2 0C432.7 0 346.3 0 259.8 0C173.3 0 86.7 0 43.3 0L0 0Z" fill="#c3dced"></path><path d="M0 19L43.3 19.3C86.7 19.7 173.3 20.3 259.8 21.3C346.3 22.3 432.7 23.7 519.2 24.5C605.7 25.3 692.3 25.7 778.8 24.7C865.3 23.7 951.7 21.3 1038.2 21.7C1124.7 22 1211.3 25 1297.8 26.7C1384.3 28.3 1470.7 28.7 1557.2 28.3C1643.7 28 1730.3 27 1773.7 26.5L1817 26L1817 0L1773.7 0C1730.3 0 1643.7 0 1557.2 0C1470.7 0 1384.3 0 1297.8 0C1211.3 0 1124.7 0 1038.2 0C951.7 0 865.3 0 778.8 0C692.3 0 605.7 0 519.2 0C432.7 0 346.3 0 259.8 0C173.3 0 86.7 0 43.3 0L0 0Z" fill="#98adc2"></path><path d="M0 13L43.3 14.3C86.7 15.7 173.3 18.3 259.8 19.7C346.3 21 432.7 21 519.2 21C605.7 21 692.3 21 778.8 20.7C865.3 20.3 951.7 19.7 1038.2 19.5C1124.7 19.3 1211.3 19.7 1297.8 18.8C1384.3 18 1470.7 16 1557.2 15.3C1643.7 14.7 1730.3 15.3 1773.7 15.7L1817 16L1817 0L1773.7 0C1730.3 0 1643.7 0 1557.2 0C1470.7 0 1384.3 0 1297.8 0C1211.3 0 1124.7 0 1038.2 0C951.7 0 865.3 0 778.8 0C692.3 0 605.7 0 519.2 0C432.7 0 346.3 0 259.8 0C173.3 0 86.7 0 43.3 0L0 0Z" fill="#718097"></path><path d="M0 10L43.3 10C86.7 10 173.3 10 259.8 9.8C346.3 9.7 432.7 9.3 519.2 9.7C605.7 10 692.3 11 778.8 10.8C865.3 10.7 951.7 9.3 1038.2 10C1124.7 10.7 1211.3 13.3 1297.8 13.8C1384.3 14.3 1470.7 12.7 1557.2 11.5C1643.7 10.3 1730.3 9.7 1773.7 9.3L1817 9L1817 0L1773.7 0C1730.3 0 1643.7 0 1557.2 0C1470.7 0 1384.3 0 1297.8 0C1211.3 0 1124.7 0 1038.2 0C951.7 0 865.3 0 778.8 0C692.3 0 605.7 0 519.2 0C432.7 0 346.3 0 259.8 0C173.3 0 86.7 0 43.3 0L0 0Z" fill="#4e556e"></path><path d="M0 5L43.3 5C86.7 5 173.3 5 259.8 5C346.3 5 432.7 5 519.2 5.2C605.7 5.3 692.3 5.7 778.8 5.7C865.3 5.7 951.7 5.3 1038.2 5.7C1124.7 6 1211.3 7 1297.8 6.7C1384.3 6.3 1470.7 4.7 1557.2 4C1643.7 3.3 1730.3 3.7 1773.7 3.8L1817 4L1817 0L1773.7 0C1730.3 0 1643.7 0 1557.2 0C1470.7 0 1384.3 0 1297.8 0C1211.3 0 1124.7 0 1038.2 0C951.7 0 865.3 0 778.8 0C692.3 0 605.7 0 519.2 0C432.7 0 346.3 0 259.8 0C173.3 0 86.7 0 43.3 0L0 0Z" fill="#2e2e46"></path></svg>