<svg width="1921" height="185" viewBox="0 0 1921 185" fill="none" xmlns="http://www.w3.org/2000/svg">
<g clip-path="url(#clip0_89_55)">
<path d="M0 135L45.7784 139C91.6625 143.5 183.219 151.5 274.67 154C366.121 156.5 457.467 153.5 548.918 152.5C640.369 151.5 731.925 153.5 823.376 148.5C914.827 143.5 1006.17 131.5 1097.62 133.5C1189.07 135 1280.63 150 1372.08 159C1463.53 168.5 1554.88 171.5 1646.33 175C1737.78 178.5 1829.34 181.5 1875.22 183.5L1921 185V0H1875.22C1829.34 0 1737.78 0 1646.33 0C1554.88 0 1463.53 0 1372.08 0C1280.63 0 1189.07 0 1097.62 0C1006.17 0 914.827 0 823.376 0C731.925 0 640.369 0 548.918 0C457.467 0 366.121 0 274.67 0C183.219 0 91.6625 0 45.7784 0H0V135Z" fill="#FF4A4A"/>
<path d="M0 130L45.7784 125C91.6625 120 183.219 110 274.67 106C366.121 101.5 457.467 103.5 548.918 105C640.369 106.5 731.925 108.5 823.376 105C914.827 101.5 1006.17 93.5 1097.62 91.5C1189.07 90 1280.63 95 1372.08 101.5C1463.53 108.5 1554.88 116.5 1646.33 120C1737.78 123.5 1829.34 121.5 1875.22 121L1921 120V0H1875.22C1829.34 0 1737.78 0 1646.33 0C1554.88 0 1463.53 0 1372.08 0C1280.63 0 1189.07 0 1097.62 0C1006.17 0 914.827 0 823.376 0C731.925 0 640.369 0 548.918 0C457.467 0 366.121 0 274.67 0C183.219 0 91.6625 0 45.7784 0H0V130Z" fill="#F0626C"/>
<path d="M0 100L45.7784 96.5C91.6625 93.5 183.219 86.5 274.67 83.5C366.121 80 457.467 80 548.918 83.5C640.369 86.5 731.925 93.5 823.376 91.5C914.827 90 1006.17 80 1097.62 75C1189.07 70 1280.63 70 1372.08 73.5C1463.53 76.5 1554.88 83.5 1646.33 82.5C1737.78 81.5 1829.34 73.5 1875.22 69L1921 65V0H1875.22C1829.34 0 1737.78 0 1646.33 0C1554.88 0 1463.53 0 1372.08 0C1280.63 0 1189.07 0 1097.62 0C1006.17 0 914.827 0 823.376 0C731.925 0 640.369 0 548.918 0C457.467 0 366.121 0 274.67 0C183.219 0 91.6625 0 45.7784 0H0V100Z" fill="#DA7885"/>
<path d="M0 45L45.7784 51C91.6625 56.5 183.219 68.5 274.67 73.5C366.121 78.5 457.467 76.5 548.918 70C640.369 63.5 731.925 51.5 823.376 51C914.827 50 1006.17 60 1097.62 60C1189.07 60 1280.63 50 1372.08 47.5C1463.53 45 1554.88 50 1646.33 51.5C1737.78 53.5 1829.34 51.5 1875.22 51L1921 50V0H1875.22C1829.34 0 1737.78 0 1646.33 0C1554.88 0 1463.53 0 1372.08 0C1280.63 0 1189.07 0 1097.62 0C1006.17 0 914.827 0 823.376 0C731.925 0 640.369 0 548.918 0C457.467 0 366.121 0 274.67 0C183.219 0 91.6625 0 45.7784 0H0V45Z" fill="#C08B96"/>
<path d="M0 25.8386L45.7784 23.4966C91.6625 20.3741 183.219 15.6902 274.67 18.0321C366.121 20.3741 457.467 31.3031 548.918 35.2063C640.369 39.1095 731.925 35.9869 823.376 32.0837C914.827 28.1805 1006.17 23.4966 1097.62 19.5934C1189.07 15.6902 1280.63 12.5676 1372.08 12.5676C1463.53 12.5676 1554.88 15.6902 1646.33 19.5934C1737.78 23.4966 1829.34 28.1805 1875.22 31.3031L1921 33.645V-21H1875.22C1829.34 -21 1737.78 -21 1646.33 -21C1554.88 -21 1463.53 -21 1372.08 -21C1280.63 -21 1189.07 -21 1097.62 -21C1006.17 -21 914.827 -21 823.376 -21C731.925 -21 640.369 -21 548.918 -21C457.467 -21 366.121 -21 274.67 -21C183.219 -21 91.6625 -21 45.7784 -21H0V25.8386Z" fill="#A29B9D"/>
</g>
<defs>
<clipPath id="clip0_89_55">
<rect width="1921" height="185" fill="white"/>
</clipPath>
</defs>
</svg>
