<svg id="visual" viewBox="0 0 1920 185" width="1920" height="185" xmlns="http://www.w3.org/2000/svg" xmlns:xlink="http://www.w3.org/1999/xlink" version="1.1"><path d="M0 55L45.7 55.2C91.3 55.3 182.7 55.7 274.2 57.7C365.7 59.7 457.3 63.3 548.8 64.7C640.3 66 731.7 65 823 63.3C914.3 61.7 1005.7 59.3 1097 57.3C1188.3 55.3 1279.7 53.7 1371.2 54.5C1462.7 55.3 1554.3 58.7 1645.8 62.5C1737.3 66.3 1828.7 70.7 1874.3 72.8L1920 75L1920 0L1874.3 0C1828.7 0 1737.3 0 1645.8 0C1554.3 0 1462.7 0 1371.2 0C1279.7 0 1188.3 0 1097 0C1005.7 0 914.3 0 823 0C731.7 0 640.3 0 548.8 0C457.3 0 365.7 0 274.2 0C182.7 0 91.3 0 45.7 0L0 0Z" fill="#bed3e5"></path><path d="M0 52L45.7 51.5C91.3 51 182.7 50 274.2 48.8C365.7 47.7 457.3 46.3 548.8 48.5C640.3 50.7 731.7 56.3 823 58.3C914.3 60.3 1005.7 58.7 1097 56.7C1188.3 54.7 1279.7 52.3 1371.2 51C1462.7 49.7 1554.3 49.3 1645.8 49.2C1737.3 49 1828.7 49 1874.3 49L1920 49L1920 0L1874.3 0C1828.7 0 1737.3 0 1645.8 0C1554.3 0 1462.7 0 1371.2 0C1279.7 0 1188.3 0 1097 0C1005.7 0 914.3 0 823 0C731.7 0 640.3 0 548.8 0C457.3 0 365.7 0 274.2 0C182.7 0 91.3 0 45.7 0L0 0Z" fill="#97a7b6"></path><path d="M0 44L45.7 44C91.3 44 182.7 44 274.2 42.3C365.7 40.7 457.3 37.3 548.8 35.5C640.3 33.7 731.7 33.3 823 33.7C914.3 34 1005.7 35 1097 36.8C1188.3 38.7 1279.7 41.3 1371.2 40.7C1462.7 40 1554.3 36 1645.8 34.7C1737.3 33.3 1828.7 34.7 1874.3 35.3L1920 36L1920 0L1874.3 0C1828.7 0 1737.3 0 1645.8 0C1554.3 0 1462.7 0 1371.2 0C1279.7 0 1188.3 0 1097 0C1005.7 0 914.3 0 823 0C731.7 0 640.3 0 548.8 0C457.3 0 365.7 0 274.2 0C182.7 0 91.3 0 45.7 0L0 0Z" fill="#727d89"></path><path d="M0 18L45.7 18.7C91.3 19.3 182.7 20.7 274.2 20.7C365.7 20.7 457.3 19.3 548.8 20.7C640.3 22 731.7 26 823 28.7C914.3 31.3 1005.7 32.7 1097 32.7C1188.3 32.7 1279.7 31.3 1371.2 28.7C1462.7 26 1554.3 22 1645.8 22.7C1737.3 23.3 1828.7 28.7 1874.3 31.3L1920 34L1920 0L1874.3 0C1828.7 0 1737.3 0 1645.8 0C1554.3 0 1462.7 0 1371.2 0C1279.7 0 1188.3 0 1097 0C1005.7 0 914.3 0 823 0C731.7 0 640.3 0 548.8 0C457.3 0 365.7 0 274.2 0C182.7 0 91.3 0 45.7 0L0 0Z" fill="#4e555e"></path><path d="M0 9L45.7 10.7C91.3 12.3 182.7 15.7 274.2 16.7C365.7 17.7 457.3 16.3 548.8 16.2C640.3 16 731.7 17 823 16.2C914.3 15.3 1005.7 12.7 1097 11.7C1188.3 10.7 1279.7 11.3 1371.2 11.2C1462.7 11 1554.3 10 1645.8 9.5C1737.3 9 1828.7 9 1874.3 9L1920 9L1920 0L1874.3 0C1828.7 0 1737.3 0 1645.8 0C1554.3 0 1462.7 0 1371.2 0C1279.7 0 1188.3 0 1097 0C1005.7 0 914.3 0 823 0C731.7 0 640.3 0 548.8 0C457.3 0 365.7 0 274.2 0C182.7 0 91.3 0 45.7 0L0 0Z" fill="#2d3137"></path></svg>