<svg width="1921" height="166" viewBox="0 0 1921 166" fill="none" xmlns="http://www.w3.org/2000/svg">
<g clip-path="url(#clip0_348_232)">
<path d="M0 140.848L45.7784 146.885C91.6625 152.418 183.219 164.491 274.67 166C366.121 167.509 457.467 159.461 548.918 152.418C640.369 145.879 731.925 140.848 823.376 140.848C914.827 140.848 1006.17 145.879 1097.62 150.909C1189.07 155.939 1280.63 160.97 1372.08 161.976C1463.53 162.479 1554.88 159.461 1646.33 153.424C1737.78 147.388 1829.34 139.339 1875.22 134.812L1921 130.788V0H1875.22C1829.34 0 1737.78 0 1646.33 0C1554.88 0 1463.53 0 1372.08 0C1280.63 0 1189.07 0 1097.62 0C1006.17 0 914.827 0 823.376 0C731.925 0 640.369 0 548.918 0C457.467 0 366.121 0 274.67 0C183.219 0 91.6625 0 45.7784 0H0V140.848Z" fill="#C3DCED"/>
<path d="M0 95.5758L45.7784 97.0848C91.6625 99.097 183.219 102.115 274.67 107.145C366.121 112.176 457.467 119.218 548.918 123.242C640.369 127.267 731.925 129.279 823.376 124.248C914.827 119.218 1006.17 107.145 1097.62 109.158C1189.07 110.667 1280.63 125.758 1372.08 134.309C1463.53 142.358 1554.88 144.37 1646.33 142.358C1737.78 140.848 1829.34 135.818 1875.22 133.303L1921 130.788V0H1875.22C1829.34 0 1737.78 0 1646.33 0C1554.88 0 1463.53 0 1372.08 0C1280.63 0 1189.07 0 1097.62 0C1006.17 0 914.827 0 823.376 0C731.925 0 640.369 0 548.918 0C457.467 0 366.121 0 274.67 0C183.219 0 91.6625 0 45.7784 0H0V95.5758Z" fill="#98ADC2"/>
<path d="M0 65.3939L45.7784 71.9333C91.6625 78.9758 183.219 92.0545 274.67 99.097C366.121 105.636 457.467 105.636 548.918 105.636C640.369 105.636 731.925 105.636 823.376 104.127C914.827 102.115 1006.17 99.097 1097.62 98.0909C1189.07 97.0848 1280.63 99.097 1372.08 94.5697C1463.53 90.5455 1554.88 80.4848 1646.33 76.9636C1737.78 73.9455 1829.34 76.9636 1875.22 78.9758L1921 80.4848V0H1875.22C1829.34 0 1737.78 0 1646.33 0C1554.88 0 1463.53 0 1372.08 0C1280.63 0 1189.07 0 1097.62 0C1006.17 0 914.827 0 823.376 0C731.925 0 640.369 0 548.918 0C457.467 0 366.121 0 274.67 0C183.219 0 91.6625 0 45.7784 0H0V65.3939Z" fill="#718097"/>
<path d="M0 50.303H45.7784C91.6625 50.303 183.219 50.303 274.67 49.297C366.121 48.7939 457.467 46.7818 548.918 48.7939C640.369 50.303 731.925 55.3333 823.376 54.3273C914.827 53.8242 1006.17 46.7818 1097.62 50.303C1189.07 53.8242 1280.63 66.903 1372.08 69.4182C1463.53 71.9333 1554.88 63.8848 1646.33 57.8485C1737.78 51.8121 1829.34 48.7939 1875.22 46.7818L1921 45.2727V0H1875.22C1829.34 0 1737.78 0 1646.33 0C1554.88 0 1463.53 0 1372.08 0C1280.63 0 1189.07 0 1097.62 0C1006.17 0 914.827 0 823.376 0C731.925 0 640.369 0 548.918 0C457.467 0 366.121 0 274.67 0C183.219 0 91.6625 0 45.7784 0H0V50.303Z" fill="#4E556E"/>
<path d="M0 25.1515H45.7784C91.6625 25.1515 183.219 25.1515 274.67 25.1515C366.121 25.1515 457.467 25.1515 548.918 26.1576C640.369 26.6606 731.925 28.6727 823.376 28.6727C914.827 28.6727 1006.17 26.6606 1097.62 28.6727C1189.07 30.1818 1280.63 35.2121 1372.08 33.703C1463.53 31.6909 1554.88 23.6424 1646.33 20.1212C1737.78 16.6 1829.34 18.6121 1875.22 19.1152L1921 20.1212V0H1875.22C1829.34 0 1737.78 0 1646.33 0C1554.88 0 1463.53 0 1372.08 0C1280.63 0 1189.07 0 1097.62 0C1006.17 0 914.827 0 823.376 0C731.925 0 640.369 0 548.918 0C457.467 0 366.121 0 274.67 0C183.219 0 91.6625 0 45.7784 0H0V25.1515Z" fill="#2E2E46"/>
</g>
<defs>
<clipPath id="clip0_348_232">
<rect width="1921" height="166" fill="white"/>
</clipPath>
</defs>
</svg>
