<svg width="1921" height="676" viewBox="0 0 1921 676" fill="none" xmlns="http://www.w3.org/2000/svg">
<path d="M0 0L39.9636 47.4638C80.0329 96.3659 159.96 191.294 239.993 211.43C320.026 230.128 399.953 172.596 479.986 197.047C560.018 220.06 639.946 326.494 720.19 326.494C800.329 326.494 880.679 220.06 960.817 215.745C1041.06 211.43 1120.99 306.357 1201.02 312.111C1281.05 316.425 1360.98 230.128 1441.01 233.004C1521.05 234.443 1600.97 326.494 1681.01 330.808C1761.04 335.123 1840.97 254.579 1881.04 212.868L1921 172.596V690.383H1881.04C1840.97 690.383 1761.04 690.383 1681.01 690.383C1600.97 690.383 1521.05 690.383 1441.01 690.383C1360.98 690.383 1281.05 690.383 1201.02 690.383C1120.99 690.383 1041.06 690.383 960.817 690.383C880.679 690.383 800.329 690.383 720.19 690.383C639.946 690.383 560.018 690.383 479.986 690.383C399.953 690.383 320.026 690.383 239.993 690.383C159.96 690.383 80.0329 690.383 39.9636 690.383H0V0Z" fill="url(#paint0_linear_71_149)"/>
<defs>
<linearGradient id="paint0_linear_71_149" x1="960.5" y1="0" x2="960.5" y2="690.383" gradientUnits="userSpaceOnUse">
<stop stop-color="#05334A" stop-opacity="0"/>
<stop offset="0.58125" stop-color="#0A6795"/>
</linearGradient>
</defs>
</svg>
