<svg width="1921" height="493" viewBox="0 0 1921 493" fill="none" xmlns="http://www.w3.org/2000/svg">
<path d="M0 0L39.9636 33.8937C80.0329 68.8146 159.96 136.602 239.993 150.981C320.026 164.333 399.953 123.25 479.986 140.71C560.019 157.144 639.946 233.148 720.19 233.148C800.329 233.148 880.679 157.144 960.817 154.062C1041.06 150.981 1120.99 218.769 1201.02 222.877C1281.05 225.958 1360.98 164.333 1441.01 166.388C1521.05 167.415 1600.97 233.148 1681.01 236.229C1761.04 239.31 1840.97 181.794 1881.04 152.008L1921 123.25V493H1881.04C1840.97 493 1761.04 493 1681.01 493C1600.97 493 1521.05 493 1441.01 493C1360.98 493 1281.05 493 1201.02 493C1120.99 493 1041.06 493 960.817 493C880.679 493 800.329 493 720.19 493C639.946 493 560.019 493 479.986 493C399.953 493 320.026 493 239.993 493C159.96 493 80.0329 493 39.9636 493H0V0Z" fill="url(#paint0_linear_375_21)"/>
<defs>
<linearGradient id="paint0_linear_375_21" x1="960.5" y1="0" x2="960.5" y2="493" gradientUnits="userSpaceOnUse">
<stop stop-color="#05334A" stop-opacity="0"/>
<stop offset="0.58125" stop-color="#0A6795"/>
</linearGradient>
</defs>
</svg>
